# xmcd
#
# Track frame offsets: 
#        182
#        21612
#        46475
#        72555
#        94042
#        113460
#        131600
#        157257
#        180910
#        206580
#        226590
#
# Disc length: 3229 seconds
#
# Revision: 2
# Processed by: cddbd v1.5.2PL0 Copyright (c) Steve Scherf et al.
# Submitted via: ExactAudioCopy v1.0b3
#
DISCID=910c9b0b
DTITLE=Glenn Jones - Here I Go Again
DYEAR=1992
DGENRE=R&B
TTITLE0=Here I Go Again
TTITLE1=I've Been Searchin' (Nobody Like You)
TTITLE2=Call Me
TTITLE3=Good Thang
TTITLE4=Open Up Your Heart
TTITLE5=The Way You Do
TTITLE6=Baby Come to Me
TTITLE7=In You
TTITLE8=Love Is Forever
TTITLE9=Get IT Right
TTITLE10=Say Yeah
EXTD=
EXTT0=
EXTT1=
EXTT2=
EXTT3=
EXTT4=
EXTT5=
EXTT6=
EXTT7=
EXTT8=
EXTT9=
EXTT10=
PLAYORDER=
